# xmcd
#
# Track frame offsets: 
#        150
#        15591
#        33465
#        50464
#        66896
#        76222
#        92249
#        115120
#        129598
#        147130
#        160895
#        177085
#        192786
#        207116
#        224835
#        237741
#        254765
#        280192
#        300252
#
# Disc length: 4149 seconds
#
# Revision: 0
# Processed by: cddbd v1.5.2PL0 Copyright (c) Steve Scherf et al.
# Submitted via: ExactAudioCopy v1.2
#
DISCID=12103313
DTITLE=Jimmy Rogers - That's All Right
DYEAR=1992
DGENRE=Blues
TTITLE0=Sloppy Drunk (Take 1)
TTITLE1=I Can't Sleep For Worrying (Take 2)
TTITLE2=Mistreated Baby
TTITLE3=Pretty Baby
TTITLE4=Slick Chick
TTITLE5=Left Me With A Broken Heart
TTITLE6=I Lost The Good Woman
TTITLE7=You're So Sweet
TTITLE8=The Last Time
TTITLE9=Shelby County
TTITLE10=Tricky Woman
TTITLE11=Sloppy Drunk (Take 2)
TTITLE12=Pretty Baby (Take 1)
TTITLE13=I Cant Sleep For Worrying (Take 1)
TTITLE14=Walkin' By Myself
TTITLE15=Gold Tailed Bird
TTITLE16=Sloppy Drunk
TTITLE17=Ludella
TTITLE18=That's All Right
EXTD=
EXTT0=
EXTT1=
EXTT2=
EXTT3=
EXTT4=
EXTT5=
EXTT6=
EXTT7=
EXTT8=
EXTT9=
EXTT10=
EXTT11=
EXTT12=
EXTT13=
EXTT14=
EXTT15=
EXTT16=
EXTT17=
EXTT18=
PLAYORDER=
